<svg width="25" height="24" viewBox="0 0 25 24" fill="none" xmlns="http://www.w3.org/2000/svg">
<g clip-path="url(#clip0_5555_6597)">
<path d="M3.75 12C3.75 13.1819 3.98279 14.3522 4.43508 15.4442C4.88738 16.5361 5.55031 17.5282 6.38604 18.364C7.22177 19.1997 8.21392 19.8626 9.30585 20.3149C10.3978 20.7672 11.5681 21 12.75 21C13.9319 21 15.1022 20.7672 16.1942 20.3149C17.2861 19.8626 18.2782 19.1997 19.114 18.364C19.9497 17.5282 20.6126 16.5361 21.0649 15.4442C21.5172 14.3522 21.75 13.1819 21.75 12C21.75 10.8181 21.5172 9.64778 21.0649 8.55585C20.6126 7.46392 19.9497 6.47177 19.114 5.63604C18.2782 4.80031 17.2861 4.13738 16.1942 3.68508C15.1022 3.23279 13.9319 3 12.75 3C11.5681 3 10.3978 3.23279 9.30585 3.68508C8.21392 4.13738 7.22177 4.80031 6.38604 5.63604C5.55031 6.47177 4.88738 7.46392 4.43508 8.55585C3.98279 9.64778 3.75 10.8181 3.75 12Z" fill="#DFF4FF"/>
<path d="M12.7483 7L17.5083 10.45L15.7483 16H9.74828L7.98828 10.45L12.7483 7Z" fill="#B2E4FF"/>
<path d="M3.75 12C3.75 13.1819 3.98279 14.3522 4.43508 15.4442C4.88738 16.5361 5.55031 17.5282 6.38604 18.364C7.22177 19.1997 8.21392 19.8626 9.30585 20.3149C10.3978 20.7672 11.5681 21 12.75 21C13.9319 21 15.1022 20.7672 16.1942 20.3149C17.2861 19.8626 18.2782 19.1997 19.114 18.364C19.9497 17.5282 20.6126 16.5361 21.0649 15.4442C21.5172 14.3522 21.75 13.1819 21.75 12C21.75 10.8181 21.5172 9.64778 21.0649 8.55585C20.6126 7.46392 19.9497 6.47177 19.114 5.63604C18.2782 4.80031 17.2861 4.13738 16.1942 3.68508C15.1022 3.23279 13.9319 3 12.75 3C11.5681 3 10.3978 3.23279 9.30585 3.68508C8.21392 4.13738 7.22177 4.80031 6.38604 5.63604C5.55031 6.47177 4.88738 7.46392 4.43508 8.55585C3.98279 9.64778 3.75 10.8181 3.75 12Z" stroke="#0083C7" stroke-width="2" stroke-linecap="round" stroke-linejoin="round"/>
<path d="M12.7483 7L17.5083 10.45L15.7483 16H9.74828L7.98828 10.45L12.7483 7Z" stroke="#0083C7" stroke-width="2" stroke-linecap="round" stroke-linejoin="round"/>
<path d="M12.75 7V3M15.75 16L18.25 19M17.51 10.45L21.25 9M9.81 16.05L7.25 19M7.99 10.45L4.25 9" stroke="#0083C7" stroke-width="2" stroke-linecap="round" stroke-linejoin="round"/>
</g>
<defs>
<clipPath id="clip0_5555_6597">
<rect width="24" height="24" fill="white" transform="translate(0.75)"/>
</clipPath>
</defs>
</svg>
