<svg width="24" height="24" viewBox="0 0 24 24" fill="none" xmlns="http://www.w3.org/2000/svg">
<g clip-path="url(#clip0_5534_6573)">
<path fill-rule="evenodd" clip-rule="evenodd" d="M15.5513 1.0239L11.9993 3.5199L8.44727 1.0239C10.7422 0.191904 13.2563 0.191904 15.5513 1.0239Z" fill="#9BC7DF"/>
<path fill-rule="evenodd" clip-rule="evenodd" d="M22.3999 10.8C22.402 10.9174 22.398 11.0349 22.3879 11.152L18.9199 8.54796L20.1999 4.40796C21.6288 6.23193 22.4035 8.48297 22.3999 10.8Z" fill="#9BC7DF"/>
<path fill-rule="evenodd" clip-rule="evenodd" d="M20.7598 16.3999C20.7358 16.4399 20.7078 16.4799 20.6838 16.5199C19.6991 18.0201 18.3414 19.2386 16.7438 20.0559C16.1362 20.3692 15.4982 20.6198 14.8398 20.8039L16.2798 16.3999H20.7598Z" fill="#9BC7DF"/>
<path fill-rule="evenodd" clip-rule="evenodd" d="M16.744 20.0559C17.532 20.4239 18 20.8919 18 21.3999C18 22.6159 15.312 23.5999 12 23.5999C8.688 23.5999 6 22.6159 6 21.3999C6 20.8919 6.468 20.4239 7.256 20.0559" fill="#74BADE"/>
<path fill-rule="evenodd" clip-rule="evenodd" d="M16.7424 20.0559H15.5424C16.3304 20.4239 16.7984 20.8919 16.7984 21.3999C16.7984 22.5415 14.4288 23.4799 11.3984 23.5887C11.596 23.5962 11.796 23.5999 11.9984 23.5999C15.3104 23.5999 17.9984 22.6159 17.9984 21.3999C17.9984 20.8919 17.5304 20.4239 16.7424 20.0559Z" fill="#77CFFD"/>
<path fill-rule="evenodd" clip-rule="evenodd" d="M9.15828 20.8039C8.49988 20.6198 7.86193 20.3692 7.25428 20.0559C5.65672 19.2386 4.299 18.0201 3.31428 16.5199C3.29028 16.4799 3.26228 16.4399 3.23828 16.3999H7.71828L9.15828 20.8039Z" fill="#9BC7DF"/>
<path fill-rule="evenodd" clip-rule="evenodd" d="M9.55533 14.0001L7.71933 16.4001H3.23933C2.22869 14.8317 1.66576 13.0171 1.61133 11.1521L5.07933 8.5481L8.04333 9.4201V9.4241L9.55533 14.0001Z" fill="#E8EDFC"/>
<path fill-rule="evenodd" clip-rule="evenodd" d="M5.08014 8.54796L1.61214 11.152C1.60208 11.0349 1.59807 10.9174 1.60014 10.8C1.59654 8.48297 2.3713 6.23193 3.80014 4.40796L5.08014 8.54796Z" fill="#9BC7DF"/>
<path fill-rule="evenodd" clip-rule="evenodd" d="M11.9988 3.51993V6.63993L8.04283 9.42393V9.41993L5.07883 8.54793L3.79883 4.40793C4.99691 2.86302 6.60862 1.68961 8.44683 1.02393L11.9988 3.51993Z" fill="#E8EDFC"/>
<path fill-rule="evenodd" clip-rule="evenodd" d="M16.2788 16.4L14.8388 20.804C12.9822 21.332 11.0153 21.332 9.15875 20.804L7.71875 16.4L9.55475 14H14.4428L16.2788 16.4Z" fill="#E8EDFC"/>
<path fill-rule="evenodd" clip-rule="evenodd" d="M22.3874 11.1519C22.3329 13.0168 21.77 14.8315 20.7594 16.3999H16.2794L14.4434 13.9999L15.9554 9.42385V9.41985L18.9194 8.54785L22.3874 11.1519Z" fill="#E8EDFC"/>
<path fill-rule="evenodd" clip-rule="evenodd" d="M20.198 4.40793L18.918 8.54793L15.954 9.41993V9.42393L11.998 6.63993V3.51993L15.55 1.02393C17.3883 1.68961 19 2.86302 20.198 4.40793Z" fill="#E8EDFC"/>
<path fill-rule="evenodd" clip-rule="evenodd" d="M15.955 9.42389L14.443 13.9999H9.55497L8.04297 9.42389L11.999 6.63989L15.955 9.42389Z" fill="#9BC7DF"/>
<path fill-rule="evenodd" clip-rule="evenodd" d="M20.1994 4.40793L19.8234 5.63193C18.7423 3.73965 17.092 2.2364 15.1074 1.33593L15.5514 1.02393C16.6555 1.42677 17.6834 2.01374 18.5914 2.75993C18.6174 2.76873 18.9466 3.06473 18.9674 3.08393C19.4141 3.49035 19.8262 3.93321 20.1994 4.40793Z" fill="#CAD9FC"/>
<path fill-rule="evenodd" clip-rule="evenodd" d="M22.3865 11.152C22.3181 13.0147 21.7563 14.8257 20.7585 16.4H19.5625C20.6342 14.7292 21.2022 12.7851 21.1985 10.8C21.1985 10.616 21.1945 10.432 21.1825 10.248L22.3865 11.152Z" fill="#CAD9FC"/>
<path fill-rule="evenodd" clip-rule="evenodd" d="M3.24014 16.3999C3.26414 16.4399 3.29214 16.4799 3.31614 16.5199C4.30086 18.0201 5.65857 19.2386 7.25614 20.0559C6.46814 20.4239 6.00014 20.8919 6.00014 21.3999C6.00014 22.5415 8.36974 23.4799 11.4001 23.5887C11.5977 23.5962 11.7977 23.5999 12.0001 23.5999C12.2025 23.5999 12.4025 23.5962 12.6001 23.5887C9.56974 23.4799 7.20014 22.5415 7.20014 21.3999C7.20014 20.8919 7.66814 20.4239 8.45614 20.0559C6.85857 19.2386 5.50086 18.0201 4.51614 16.5199C4.49214 16.4799 4.46414 16.4399 4.44014 16.3999C3.4295 14.8316 2.86656 13.0169 2.81214 11.1519C2.80208 11.0349 2.79807 10.9174 2.80014 10.7999C2.78054 5.27531 7.10353 0.709341 12.6209 0.427102C12.4149 0.413902 12.2093 0.399902 12.0001 0.399902C11.8001 0.399902 11.6001 0.407102 11.4001 0.418302C11.4213 0.418302 11.4421 0.422302 11.4633 0.423502C5.93751 0.70505 1.60127 5.26691 1.60014 10.7999C1.59807 10.9174 1.60208 11.0349 1.61214 11.1519C1.66656 13.0169 2.2295 14.8316 3.24014 16.3999Z" fill="white"/>
<path fill-rule="evenodd" clip-rule="evenodd" d="M1.60352 13.7299L2.37352 13.5139C2.65315 14.5024 3.08325 15.4419 3.64872 16.2995L2.98152 16.7395C2.36999 15.8132 1.90518 14.7981 1.60352 13.7299Z" fill="#0083C7"/>
<path d="M1.20962 11.166V11.1856V11.188C1.23941 12.0477 1.37113 12.9009 1.60202 13.7296C1.6298 13.8338 1.69895 13.9221 1.79344 13.9741C1.88793 14.026 1.99955 14.0371 2.10242 14.0048C2.30911 13.9394 2.42786 13.7231 2.37202 13.5136C2.17585 12.8053 2.05808 12.0776 2.02082 11.3436L5.15922 8.9888L7.72882 9.7448L9.10882 13.924L7.52162 16H3.23922C3.07726 16.0005 2.9316 16.0986 2.87028 16.2485C2.80895 16.3984 2.84407 16.5705 2.95922 16.6844C2.96513 16.7033 2.97248 16.7218 2.98122 16.7396C3.86939 18.0931 5.05138 19.2289 6.43922 20.0624C5.94972 20.3361 5.63318 20.8402 5.59922 21.4C5.59922 23.0888 8.89682 24 11.9992 24C15.1016 24 18.3992 23.0888 18.3992 21.4C18.3653 20.8402 18.0487 20.3361 17.5592 20.0624C20.6904 18.1786 22.6573 14.8399 22.7872 11.188C22.7988 11.0568 22.7992 10.9312 22.7992 10.8C22.8003 7.93534 21.6628 5.1877 19.6371 3.16208C17.6115 1.13645 14.8639 -0.00106083 11.9992 7.42364e-07C6.03646 0.00463304 1.20385 4.83725 1.19922 10.8C1.19922 10.924 1.19922 11.0428 1.21042 11.166H1.20962ZM2.01762 10.3468C2.09096 8.54524 2.65695 6.79829 3.65402 5.296L4.61402 8.3976L2.01762 10.3468ZM11.9992 0.800001C12.8983 0.799273 13.7934 0.920375 14.66 1.16L11.9992 3.0308L9.33842 1.16C10.205 0.920351 11.1001 0.799249 11.9992 0.800001ZM11.9992 7.1288L15.4832 9.5784L14.154 13.6H9.84442L8.51522 9.5784L11.9992 7.1288ZM16.2712 9.7448L18.8408 8.9888L21.9756 11.3436C21.8902 12.9917 21.3942 14.5923 20.5328 16H16.4768L14.8896 13.924L16.2712 9.7448ZM20.3444 5.296C21.3417 6.7982 21.9077 8.54521 21.9808 10.3468L19.3856 8.3976L20.3444 5.296ZM14.5272 20.4704C12.8705 20.9099 11.1279 20.9099 9.47122 20.4704L8.16482 16.476L9.75202 14.4H14.2464L15.8336 16.476L14.5272 20.4704ZM4.01082 16.8H7.42922L8.53322 20.1772C6.73065 19.5129 5.15963 18.3397 4.01082 16.8ZM17.5992 21.4C17.5992 22.1516 15.4688 23.2 11.9992 23.2C8.52962 23.2 6.39922 22.1516 6.39922 21.4C6.39922 21.11 6.70922 20.7892 7.25242 20.5052C9.64555 21.6721 12.3848 21.9159 14.9464 21.19C15.5659 21.0164 16.1683 20.787 16.7464 20.5048C17.2892 20.7892 17.5992 21.11 17.5992 21.4ZM15.4652 20.1772L16.5692 16.8H19.9876C18.8387 18.3396 17.2677 19.5128 15.4652 20.1772ZM19.7532 4.4972L18.6016 8.224L16.0268 8.9816L12.3992 6.4324V3.728L15.6036 1.476C17.2286 2.10098 18.6599 3.14351 19.7532 4.4984V4.4972ZM8.39482 1.476L11.5992 3.728V6.4324L7.97162 8.9828L5.39682 8.2252L4.24522 4.498C5.33871 3.1434 6.77001 2.10103 8.39482 1.476Z" fill="#0083C7"/>
</g>
<defs>
<clipPath id="clip0_5534_6573">
<rect width="24" height="24" fill="white"/>
</clipPath>
</defs>
</svg>
