<svg width="137" height="24" viewBox="0 0 137 24" fill="none" xmlns="http://www.w3.org/2000/svg">
<g clip-path="url(#clip0_5601_6593)">
<path d="M0 18.7128V0.0710449H4.86709V14.4783H10.7563V18.7128H0Z" fill="#1A2C58"/>
<path d="M19.5656 3.47827C23.8735 3.47827 26.9155 6.32549 26.9155 11.6556C26.9155 12.0207 26.94 12.2155 26.9155 12.5563H16.4021C16.7917 14.3324 18.2027 15.1842 19.9063 15.1842C21.3906 15.1842 22.3639 14.1376 23.1431 13.1154C23.1431 13.1154 25.8445 14.6731 26.6718 15.1842C25.3578 17.5204 22.8269 19.078 19.687 19.078C15.0873 19.078 11.9238 16.2797 11.9238 11.2659C11.9238 6.73956 15.1607 3.47827 19.5656 3.47827ZM16.5724 9.39197H22.2432C21.7077 7.95574 20.9292 7.2743 19.5175 7.2743C17.9842 7.2743 17.1324 8.00464 16.5724 9.39197Z" fill="#1A2C58"/>
<path d="M34.5343 3.47827C36.4327 3.47827 37.7222 4.08636 39.0126 5.44924V3.77009H43.3441V16.9359C43.3441 21.5601 39.8644 23.9688 35.6779 23.9688C32.0033 23.9688 28.791 22.1193 28.3043 18.761H33.3907C34.0232 19.7831 34.6558 19.978 35.7757 19.978C37.3579 19.978 38.8177 19.2476 38.8177 17.6174C38.8177 17.2277 38.8422 16.887 38.7933 16.4982C37.9171 17.2766 36.2868 18.2262 34.5099 18.2262C30.6405 18.2262 28.0117 15.0139 28.0117 10.9497C28.0117 6.88547 30.5916 3.47827 34.5343 3.47827ZM32.4166 10.9252C32.4166 12.8481 33.5603 14.4294 35.5557 14.4294C37.8193 14.4294 39.0354 12.6288 39.0354 10.9497C39.0354 8.95424 37.9163 7.34765 35.5793 7.34765C33.4625 7.34765 32.4158 9.0757 32.4158 10.9252H32.4166Z" fill="#1A2C58"/>
<path d="M52.4201 3.47827C54.2452 3.47827 55.3888 4.08636 56.728 5.30333V3.77009H61.2063V18.7129H56.6554V17.253C56.6554 17.253 55.0252 19.078 52.1772 19.078C48.016 19.078 45.168 16.1094 45.168 11.3148C45.168 7.15363 48.2589 3.47827 52.4201 3.47827ZM49.7677 11.2415C49.7677 13.3103 51.0817 15.0139 53.1749 15.0139C55.2681 15.0139 56.8739 13.5295 56.8739 11.3637C56.8739 9.19795 55.3162 7.66471 53.3208 7.66471C51.155 7.66471 49.7677 9.2713 49.7677 11.2423V11.2415Z" fill="#1A2C58"/>
<path d="M92.5265 3.47827C96.8344 3.47827 99.8764 6.32549 99.8764 11.6556C99.8764 12.0207 99.9009 12.2155 99.8764 12.5563H89.363C89.7526 14.3324 91.1636 15.1842 92.8672 15.1842C94.3516 15.1842 95.3248 14.1376 96.1041 13.1154C96.1041 13.1154 98.8054 14.6731 99.6327 15.1842C98.3188 17.5204 95.7878 19.078 92.648 19.078C88.0483 19.078 84.8848 16.2797 84.8848 11.2659C84.8848 6.73956 88.1216 3.47827 92.5265 3.47827ZM89.5334 9.39197H95.2034C94.6678 7.95574 93.8894 7.2743 92.4776 7.2743C90.9444 7.2743 90.0926 8.00464 89.5326 9.39197H89.5334Z" fill="#FAAE17"/>
<path d="M105.059 3.77002L108.028 12.0443L110.754 3.77002H114.38L117.252 12.0932L120.197 3.77002H124.893L119.272 18.7128H115.353L112.579 10.6814L109.902 18.7128H105.984L100.289 3.77002H105.059Z" fill="#FAAE17"/>
<path d="M131.027 3.47827C133.168 3.47827 134.993 4.67079 135.918 6.76401L132.487 8.2728C132.487 8.2728 131.951 7.10473 130.637 7.10473C129.907 7.10473 129.444 7.421 129.444 8.00543C129.444 9.68458 136.331 9.00314 136.331 14.1139C136.331 17.3508 133.509 19.0788 130.344 19.0788C127.838 19.0788 125.988 18.1537 124.82 15.9635L128.3 14.211C128.3 14.211 129.054 15.5249 130.393 15.5249C131.124 15.5249 132 15.1842 132 14.4783C132 12.6288 125.308 13.6021 125.308 8.34536C125.308 5.44924 127.717 3.47827 131.027 3.47827Z" fill="#FAAE17"/>
<path d="M77.8279 0.0710449V11.12L69.1151 0.0710449H64.248V13.2014H69.1151V7.59055L77.682 18.7128H82.5491V0.0710449H77.8279Z" fill="#FAAE17"/>
<path d="M69.1151 18.708H64.248V18.7127H69.1151V18.708Z" fill="#FAAE17"/>
<path d="M64.248 15.0139V18.7129C64.248 18.7129 66.4682 18.7035 69.1144 18.7129V15.0139H64.248Z" fill="#FAAE17"/>
</g>
<defs>
<clipPath id="clip0_5601_6593">
<rect width="136.331" height="24" fill="white"/>
</clipPath>
</defs>
</svg>
