<svg width="25" height="24" viewBox="0 0 25 24" fill="none" xmlns="http://www.w3.org/2000/svg">
<g clip-path="url(#clip0_5555_6646)">
<path d="M15.25 10.0001L19.803 7.72412C19.9554 7.64795 20.1248 7.612 20.295 7.61967C20.4652 7.62733 20.6306 7.67837 20.7756 7.76792C20.9206 7.85748 21.0402 7.9826 21.1233 8.13139C21.2063 8.28019 21.2499 8.44773 21.25 8.61812V15.3821C21.2499 15.5525 21.2063 15.7201 21.1233 15.8688C21.0402 16.0176 20.9206 16.1428 20.7756 16.2323C20.6306 16.3219 20.4652 16.3729 20.295 16.3806C20.1248 16.3882 19.9554 16.3523 19.803 16.2761L15.25 14.0001V10.0001Z" stroke="#515A6F" stroke-width="2" stroke-linecap="round" stroke-linejoin="round"/>
<path d="M13.25 6H5.25C4.14543 6 3.25 6.89543 3.25 8V16C3.25 17.1046 4.14543 18 5.25 18H13.25C14.3546 18 15.25 17.1046 15.25 16V8C15.25 6.89543 14.3546 6 13.25 6Z" stroke="#515A6F" stroke-width="2" stroke-linecap="round" stroke-linejoin="round"/>
</g>
<defs>
<clipPath id="clip0_5555_6646">
<rect width="24" height="24" fill="white" transform="translate(0.25)"/>
</clipPath>
</defs>
</svg>
