<svg width="25" height="24" viewBox="0 0 25 24" fill="none" xmlns="http://www.w3.org/2000/svg">
<g clip-path="url(#clip0_5555_6611)">
<path d="M8.91602 12.0001C8.91602 12.9094 9.2672 13.7815 9.89233 14.4245C10.5174 15.0675 11.3653 15.4287 12.2493 15.4287C13.1334 15.4287 13.9813 15.0675 14.6064 14.4245C15.2315 13.7815 15.5827 12.9094 15.5827 12.0001C15.5827 11.0908 15.2315 10.2187 14.6064 9.57574C13.9813 8.93276 13.1334 8.57153 12.2493 8.57153C11.3653 8.57153 10.5174 8.93276 9.89233 9.57574C9.2672 10.2187 8.91602 11.0908 8.91602 12.0001Z" stroke="#515A6F" stroke-width="2" stroke-linecap="round" stroke-linejoin="round"/>
<path d="M2.25 8.57153H5.58333V15.4287H2.25V8.57153Z" stroke="#515A6F" stroke-width="2" stroke-linecap="round" stroke-linejoin="round"/>
<path d="M18.916 8.57153H22.2493V15.4287H18.916V8.57153Z" stroke="#515A6F" stroke-width="2" stroke-linecap="round" stroke-linejoin="round"/>
<path d="M2.25 6.28571C2.25 5.67951 2.48413 5.09812 2.90087 4.66947C3.31762 4.24082 3.88285 4 4.47222 4H20.0278C20.6171 4 21.1824 4.24082 21.5991 4.66947C22.0159 5.09812 22.25 5.67951 22.25 6.28571V17.7143C22.25 18.3205 22.0159 18.9019 21.5991 19.3305C21.1824 19.7592 20.6171 20 20.0278 20H4.47222C3.88285 20 3.31762 19.7592 2.90087 19.3305C2.48413 18.9019 2.25 18.3205 2.25 17.7143V6.28571Z" stroke="#515A6F" stroke-width="2" stroke-linecap="round" stroke-linejoin="round"/>
<path d="M12.25 4V20" stroke="#515A6F" stroke-width="2" stroke-linecap="round" stroke-linejoin="round"/>
</g>
<defs>
<clipPath id="clip0_5555_6611">
<rect width="24" height="24" fill="white" transform="translate(0.25)"/>
</clipPath>
</defs>
</svg>
