<svg width="24" height="24" viewBox="0 0 24 24" fill="none" xmlns="http://www.w3.org/2000/svg">
<g clip-path="url(#clip0_5617_7521)">
<path d="M18.3431 1.875C19.3458 1.87612 20.3071 2.27492 21.0161 2.98392C21.7251 3.69292 22.1239 4.6542 22.125 5.65688V18.3431C22.1239 19.3458 21.7251 20.3071 21.0161 21.0161C20.3071 21.7251 19.3458 22.1239 18.3431 22.125H5.65688C4.6542 22.1239 3.69292 21.7251 2.98392 21.0161C2.27492 20.3071 1.87612 19.3458 1.875 18.3431V5.65688C1.87612 4.6542 2.27492 3.69292 2.98392 2.98392C3.69292 2.27492 4.6542 1.87612 5.65688 1.875H18.3431ZM18.3431 0H5.65688C4.15658 0 2.71773 0.595991 1.65686 1.65686C0.595991 2.71773 0 4.15658 0 5.65688L0 18.3431C0 19.8434 0.595991 21.2823 1.65686 22.3431C2.71773 23.404 4.15658 24 5.65688 24H18.3431C19.8434 24 21.2823 23.404 22.3431 22.3431C23.404 21.2823 24 19.8434 24 18.3431V5.65688C24 4.15658 23.404 2.71773 22.3431 1.65686C21.2823 0.595991 19.8434 0 18.3431 0Z" fill="#FAAE17"/>
<path d="M14.0361 7H9.14234C8.04411 7.00124 6.99121 7.43806 6.21463 8.21463C5.43806 8.99121 5.00124 10.0441 5 11.1423V13.7584C5.00124 14.8567 5.43806 15.9096 6.21463 16.6861C6.99121 17.4627 8.04411 17.8995 9.14234 17.9008H14.0361C15.1343 17.8995 16.1872 17.4627 16.9638 16.6861C17.7404 15.9096 18.1772 14.8567 18.1784 13.7584V11.1423C18.1772 10.0441 17.7404 8.99121 16.9638 8.21463C16.1872 7.43806 15.1343 7.00124 14.0361 7ZM13.5481 13.7195L11.3206 15.0109C11.1189 15.1281 10.8898 15.1901 10.6565 15.1905C10.4231 15.1909 10.1938 15.1298 9.99166 15.0133C9.78948 14.8969 9.62159 14.7292 9.5049 14.5271C9.38821 14.3251 9.32686 14.0958 9.32703 13.8625V11.2787C9.32701 11.0455 9.38845 10.8163 9.50517 10.6144C9.62189 10.4124 9.78976 10.2448 9.99189 10.1283C10.194 10.0119 10.4233 9.95076 10.6565 9.95111C10.8898 9.95146 11.1188 10.0133 11.3206 10.1303L13.5481 11.4222C13.7492 11.539 13.9162 11.7065 14.0322 11.908C14.1482 12.1096 14.2093 12.3381 14.2093 12.5706C14.2093 12.8032 14.1482 13.0317 14.0322 13.2332C13.9162 13.4348 13.7492 13.6023 13.5481 13.7191V13.7195Z" fill="#FAAE17"/>
</g>
<defs>
<clipPath id="clip0_5617_7521">
<rect width="24" height="24" fill="white"/>
</clipPath>
</defs>
</svg>
