<svg width="16" height="16" viewBox="0 0 16 16" fill="none" xmlns="http://www.w3.org/2000/svg">
<path d="M1 7.75C1 5.26172 2.3125 2.96484 4.5 1.70703C6.66016 0.449219 9.3125 0.449219 11.5 1.70703C13.6602 2.96484 15 5.26172 15 7.75C15 10.2656 13.6602 12.5625 11.5 13.8203C9.3125 15.0781 6.66016 15.0781 4.5 13.8203C2.3125 12.5625 1 10.2656 1 7.75ZM6.14062 4.79688C5.92188 4.90625 5.8125 5.125 5.8125 5.34375V10.1562C5.8125 10.4023 5.92188 10.6211 6.14062 10.7305C6.33203 10.8672 6.60547 10.8398 6.79688 10.7305L10.7344 8.32422C10.9258 8.1875 11.0625 7.99609 11.0625 7.75C11.0625 7.53125 10.9258 7.3125 10.7344 7.20312L6.79688 4.79688C6.60547 4.66016 6.33203 4.66016 6.14062 4.76953V4.79688Z" fill="#FAAE17"/>
</svg>
